# xmcd CD database file
# Copyright (C) 1997 Ti Kan
# 
# Track frame offsets:
#     183
#     9100
#     18485
#     28230
#     38595
#     48035
#     57473
#     68745
#     81250
#     98660
#     110865
#     121025
#     131320
#     145870
#     156223
#     167575
#     178328
#     191165
#     199938
#     211020
# 
# Disc length: 2966 seconds
# 
# Revision: 1
# Processed by: cddbd v1.4b41PL1 Copyright (c) Steve Scherf et al.
# Submitted via: DiscPlay 4.0.3
# 
DISCID=0c0b9414
DTITLE=Frank Ifield - The Best Of The EMI Years
DYEAR=1900
DGENRE=
TTITLE0=Lucky Devil
TTITLE1=I Remember You
TTITLE2=She Taught Me How To Yodel
TTITLE3=Lovesick Blues
TTITLE4=Confessin' That I Love You
TTITLE5=Just One More Chance
TTITLE6=Nobody's Darlin' But Mine
TTITLE7=The Wayward Wind
TTITLE8=My Blue Heaven
TTITLE9=Say It Isn't So
TTITLE10=Don't Blame Me
TTITLE11=You Came A Long Way From St Louis
TTITLE12=Summer Is Over
TTITLE13=Once A Jolly Swagman
TTITLE14=Botany Bay
TTITLE15=Paradise
TTITLE16=Wild Rover
TTITLE17=Call Her Your Sweetheart
TTITLE18=No One Will Ever Know
TTITLE19=Give Me Your Word
EXTD=
EXTT0=
EXTT1=
EXTT2=
EXTT3=
EXTT4=
EXTT5=
EXTT6=
EXTT7=
EXTT8=
EXTT9=
EXTT10=
EXTT11=
EXTT12=
EXTT13=
EXTT14=
EXTT15=
EXTT16=
EXTT17=
EXTT18=
EXTT19=
PLAYORDER=
